<svg xmlns="http://www.w3.org/2000/svg" xmlns:xlink="http://www.w3.org/1999/xlink" width="500" zoomAndPan="magnify" viewBox="0 0 375 374.999991" height="500" preserveAspectRatio="xMidYMid meet" version="1.0"><defs><g/><clipPath id="ccadc7496f"><path d="M 25.632812 158 L 112.632812 158 L 112.632812 217 L 25.632812 217 Z M 25.632812 158 " clip-rule="nonzero"/></clipPath></defs><rect x="-37.5" width="450" fill="#ffffff" y="-37.499999" height="449.999989" fill-opacity="1"/><rect x="-37.5" width="450" fill="#ffffff" y="-37.499999" height="449.999989" fill-opacity="1"/><g clip-path="url(#ccadc7496f)"><path fill="#0f0f0f" d="M 36.507812 158.5625 C 30.5 158.5625 25.632812 163.433594 25.632812 169.4375 L 25.632812 194.8125 C 25.632812 199.570312 28.6875 203.613281 32.941406 205.089844 C 33.550781 211.527344 38.972656 216.5625 45.570312 216.5625 C 51.960938 216.5625 57.25 211.835938 58.128906 205.6875 L 80.136719 205.6875 C 81.015625 211.835938 86.304688 216.5625 92.695312 216.5625 C 99.292969 216.5625 104.714844 211.527344 105.324219 205.089844 C 109.578125 203.613281 112.632812 199.570312 112.632812 194.8125 L 112.632812 181.378906 C 112.632812 180.320312 112.476562 179.265625 112.175781 178.253906 L 108.59375 166.3125 C 107.210938 161.714844 102.980469 158.5625 98.175781 158.5625 Z M 40.132812 203.644531 L 40.132812 204.105469 C 40.253906 207.003906 42.640625 209.316406 45.570312 209.316406 C 48.5 209.316406 50.886719 207.003906 51.007812 204.105469 L 51.007812 203.644531 C 50.886719 200.746094 48.5 198.433594 45.570312 198.433594 C 42.640625 198.433594 40.253906 200.746094 40.132812 203.644531 Z M 45.570312 191.1875 C 50.632812 191.1875 55 194.152344 57.035156 198.4375 L 81.230469 198.4375 C 83.265625 194.152344 87.632812 191.1875 92.695312 191.1875 C 97.496094 191.1875 101.675781 193.855469 103.828125 197.789062 C 104.769531 197.132812 105.382812 196.042969 105.382812 194.8125 L 105.382812 181.378906 C 105.382812 181.023438 105.332031 180.671875 105.230469 180.335938 L 105.222656 180.3125 L 90.882812 180.3125 C 86.878906 180.3125 83.632812 177.066406 83.632812 173.0625 L 83.632812 165.8125 L 36.507812 165.8125 C 34.507812 165.8125 32.882812 167.4375 32.882812 169.4375 L 32.882812 194.8125 C 32.882812 196.042969 33.496094 197.132812 34.4375 197.789062 C 36.589844 193.855469 40.769531 191.1875 45.570312 191.1875 Z M 90.882812 165.8125 L 90.882812 169.4375 C 90.882812 171.441406 92.503906 173.0625 94.507812 173.0625 L 103.046875 173.0625 L 101.648438 168.398438 C 101.1875 166.863281 99.777344 165.8125 98.175781 165.8125 Z M 87.257812 203.644531 L 87.257812 204.105469 C 87.378906 207.003906 89.765625 209.316406 92.695312 209.316406 C 95.625 209.316406 98.011719 207.003906 98.132812 204.105469 L 98.132812 203.644531 C 98.011719 200.746094 95.625 198.433594 92.695312 198.433594 C 89.765625 198.433594 87.378906 200.746094 87.257812 203.644531 Z M 87.257812 203.644531 " fill-opacity="1" fill-rule="evenodd"/></g><g fill="#000000" fill-opacity="1"><g transform="translate(130.863205, 200.624987)"><g><path d="M 2.703125 -24.984375 L 11.421875 -24.984375 C 14.816406 -24.984375 17.335938 -24.476562 18.984375 -23.46875 C 20.628906 -22.457031 21.453125 -20.890625 21.453125 -18.765625 C 21.453125 -17.359375 21.09375 -16.160156 20.375 -15.171875 C 19.65625 -14.179688 18.707031 -13.546875 17.53125 -13.265625 L 17.53125 -13.09375 C 19.082031 -12.675781 20.203125 -11.988281 20.890625 -11.03125 C 21.585938 -10.082031 21.9375 -8.84375 21.9375 -7.3125 C 21.9375 -5.039062 21.082031 -3.253906 19.375 -1.953125 C 17.675781 -0.648438 15.359375 0 12.421875 0 L 2.703125 0 Z M 9.453125 -15.390625 L 11.484375 -15.390625 C 12.453125 -15.390625 13.203125 -15.585938 13.734375 -15.984375 C 14.265625 -16.390625 14.53125 -16.988281 14.53125 -17.78125 C 14.53125 -19.175781 13.46875 -19.875 11.34375 -19.875 L 9.453125 -19.875 Z M 9.453125 -10.453125 L 9.453125 -5.21875 L 11.828125 -5.21875 C 13.929688 -5.21875 14.984375 -6.101562 14.984375 -7.875 C 14.984375 -8.707031 14.703125 -9.34375 14.140625 -9.78125 C 13.578125 -10.226562 12.757812 -10.453125 11.6875 -10.453125 Z M 9.453125 -10.453125 "/></g></g></g><g fill="#000000" fill-opacity="1"><g transform="translate(154.441923, 200.624987)"><g><path d="M 2.703125 -24.984375 L 11.421875 -24.984375 C 14.816406 -24.984375 17.335938 -24.476562 18.984375 -23.46875 C 20.628906 -22.457031 21.453125 -20.890625 21.453125 -18.765625 C 21.453125 -17.359375 21.09375 -16.160156 20.375 -15.171875 C 19.65625 -14.179688 18.707031 -13.546875 17.53125 -13.265625 L 17.53125 -13.09375 C 19.082031 -12.675781 20.203125 -11.988281 20.890625 -11.03125 C 21.585938 -10.082031 21.9375 -8.84375 21.9375 -7.3125 C 21.9375 -5.039062 21.082031 -3.253906 19.375 -1.953125 C 17.675781 -0.648438 15.359375 0 12.421875 0 L 2.703125 0 Z M 9.453125 -15.390625 L 11.484375 -15.390625 C 12.453125 -15.390625 13.203125 -15.585938 13.734375 -15.984375 C 14.265625 -16.390625 14.53125 -16.988281 14.53125 -17.78125 C 14.53125 -19.175781 13.46875 -19.875 11.34375 -19.875 L 9.453125 -19.875 Z M 9.453125 -10.453125 L 9.453125 -5.21875 L 11.828125 -5.21875 C 13.929688 -5.21875 14.984375 -6.101562 14.984375 -7.875 C 14.984375 -8.707031 14.703125 -9.34375 14.140625 -9.78125 C 13.578125 -10.226562 12.757812 -10.453125 11.6875 -10.453125 Z M 9.453125 -10.453125 "/></g></g></g><g fill="#000000" fill-opacity="1"><g transform="translate(178.020641, 200.624987)"><g><path d="M 16.09375 0 L 15.265625 -2.40625 L 14.875 -2.40625 C 14.3125 -1.519531 13.53125 -0.835938 12.53125 -0.359375 C 11.539062 0.109375 10.375 0.34375 9.03125 0.34375 C 6.894531 0.34375 5.234375 -0.269531 4.046875 -1.5 C 2.859375 -2.738281 2.265625 -4.488281 2.265625 -6.75 L 2.265625 -19.359375 L 8.953125 -19.359375 L 8.953125 -8.78125 C 8.953125 -7.519531 9.128906 -6.5625 9.484375 -5.90625 C 9.847656 -5.257812 10.441406 -4.9375 11.265625 -4.9375 C 12.410156 -4.9375 13.226562 -5.390625 13.71875 -6.296875 C 14.207031 -7.203125 14.453125 -8.734375 14.453125 -10.890625 L 14.453125 -19.359375 L 21.140625 -19.359375 L 21.140625 0 Z M 16.09375 0 "/></g></g></g><g fill="#000000" fill-opacity="1"><g transform="translate(201.462671, 200.624987)"><g><path d="M 17.265625 -5.953125 C 17.265625 -3.878906 16.554688 -2.3125 15.140625 -1.25 C 13.722656 -0.1875 11.695312 0.34375 9.0625 0.34375 C 7.625 0.34375 6.375 0.265625 5.3125 0.109375 C 4.25 -0.046875 3.164062 -0.328125 2.0625 -0.734375 L 2.0625 -6.078125 C 3.101562 -5.628906 4.238281 -5.253906 5.46875 -4.953125 C 6.707031 -4.660156 7.8125 -4.515625 8.78125 -4.515625 C 10.226562 -4.515625 10.953125 -4.84375 10.953125 -5.5 C 10.953125 -5.84375 10.75 -6.144531 10.34375 -6.40625 C 9.9375 -6.675781 8.757812 -7.203125 6.8125 -7.984375 C 5.039062 -8.710938 3.800781 -9.539062 3.09375 -10.46875 C 2.382812 -11.394531 2.03125 -12.570312 2.03125 -14 C 2.03125 -15.800781 2.722656 -17.203125 4.109375 -18.203125 C 5.503906 -19.203125 7.472656 -19.703125 10.015625 -19.703125 C 11.285156 -19.703125 12.484375 -19.5625 13.609375 -19.28125 C 14.734375 -19.007812 15.898438 -18.601562 17.109375 -18.0625 L 15.296875 -13.75 C 14.410156 -14.15625 13.46875 -14.492188 12.46875 -14.765625 C 11.476562 -15.046875 10.671875 -15.1875 10.046875 -15.1875 C 8.953125 -15.1875 8.40625 -14.921875 8.40625 -14.390625 C 8.40625 -14.054688 8.59375 -13.769531 8.96875 -13.53125 C 9.351562 -13.300781 10.457031 -12.828125 12.28125 -12.109375 C 13.644531 -11.554688 14.660156 -11.007812 15.328125 -10.46875 C 15.992188 -9.9375 16.484375 -9.304688 16.796875 -8.578125 C 17.109375 -7.859375 17.265625 -6.984375 17.265625 -5.953125 Z M 17.265625 -5.953125 "/></g></g></g><g fill="#000000" fill-opacity="1"><g transform="translate(220.120613, 200.624987)"><g/></g></g><g fill="#000000" fill-opacity="1"><g transform="translate(229.21038, 200.624987)"><g><path d="M 19.03125 -7.59375 C 19.03125 -6.039062 18.640625 -4.660156 17.859375 -3.453125 C 17.078125 -2.253906 15.941406 -1.320312 14.453125 -0.65625 C 12.972656 0.0078125 11.238281 0.34375 9.25 0.34375 C 7.582031 0.34375 6.179688 0.226562 5.046875 0 C 3.921875 -0.238281 2.75 -0.648438 1.53125 -1.234375 L 1.53125 -7.25 C 2.820312 -6.582031 4.160156 -6.0625 5.546875 -5.6875 C 6.941406 -5.320312 8.21875 -5.140625 9.375 -5.140625 C 10.382812 -5.140625 11.117188 -5.3125 11.578125 -5.65625 C 12.046875 -6.007812 12.28125 -6.457031 12.28125 -7 C 12.28125 -7.34375 12.1875 -7.640625 12 -7.890625 C 11.8125 -8.148438 11.507812 -8.410156 11.09375 -8.671875 C 10.675781 -8.941406 9.570312 -9.476562 7.78125 -10.28125 C 6.144531 -11.03125 4.921875 -11.75 4.109375 -12.4375 C 3.296875 -13.132812 2.691406 -13.929688 2.296875 -14.828125 C 1.898438 -15.734375 1.703125 -16.800781 1.703125 -18.03125 C 1.703125 -20.332031 2.539062 -22.125 4.21875 -23.40625 C 5.894531 -24.695312 8.195312 -25.34375 11.125 -25.34375 C 13.707031 -25.34375 16.34375 -24.742188 19.03125 -23.546875 L 16.96875 -18.34375 C 14.632812 -19.40625 12.617188 -19.9375 10.921875 -19.9375 C 10.046875 -19.9375 9.40625 -19.78125 9 -19.46875 C 8.601562 -19.164062 8.40625 -18.789062 8.40625 -18.34375 C 8.40625 -17.851562 8.65625 -17.410156 9.15625 -17.015625 C 9.664062 -16.628906 11.046875 -15.925781 13.296875 -14.90625 C 15.453125 -13.9375 16.945312 -12.894531 17.78125 -11.78125 C 18.613281 -10.675781 19.03125 -9.28125 19.03125 -7.59375 Z M 19.03125 -7.59375 "/></g></g></g><g fill="#000000" fill-opacity="1"><g transform="translate(249.406065, 200.624987)"><g><path d="M -0.03125 -19.359375 L 7 -19.359375 L 10.28125 -8.25 C 10.445312 -7.675781 10.554688 -6.976562 10.609375 -6.15625 L 10.75 -6.15625 C 10.84375 -6.9375 10.976562 -7.625 11.15625 -8.21875 L 14.53125 -19.359375 L 21.34375 -19.359375 L 13.6875 1.234375 C 12.707031 3.847656 11.503906 5.695312 10.078125 6.78125 C 8.648438 7.863281 6.785156 8.40625 4.484375 8.40625 C 3.585938 8.40625 2.675781 8.3125 1.75 8.125 L 1.75 2.875 C 2.351562 3.007812 3.039062 3.078125 3.8125 3.078125 C 4.40625 3.078125 4.921875 2.960938 5.359375 2.734375 C 5.804688 2.503906 6.195312 2.179688 6.53125 1.765625 C 6.863281 1.347656 7.21875 0.664062 7.59375 -0.28125 Z M -0.03125 -19.359375 "/></g></g></g><g fill="#000000" fill-opacity="1"><g transform="translate(270.746514, 200.624987)"><g><path d="M 17.265625 -5.953125 C 17.265625 -3.878906 16.554688 -2.3125 15.140625 -1.25 C 13.722656 -0.1875 11.695312 0.34375 9.0625 0.34375 C 7.625 0.34375 6.375 0.265625 5.3125 0.109375 C 4.25 -0.046875 3.164062 -0.328125 2.0625 -0.734375 L 2.0625 -6.078125 C 3.101562 -5.628906 4.238281 -5.253906 5.46875 -4.953125 C 6.707031 -4.660156 7.8125 -4.515625 8.78125 -4.515625 C 10.226562 -4.515625 10.953125 -4.84375 10.953125 -5.5 C 10.953125 -5.84375 10.75 -6.144531 10.34375 -6.40625 C 9.9375 -6.675781 8.757812 -7.203125 6.8125 -7.984375 C 5.039062 -8.710938 3.800781 -9.539062 3.09375 -10.46875 C 2.382812 -11.394531 2.03125 -12.570312 2.03125 -14 C 2.03125 -15.800781 2.722656 -17.203125 4.109375 -18.203125 C 5.503906 -19.203125 7.472656 -19.703125 10.015625 -19.703125 C 11.285156 -19.703125 12.484375 -19.5625 13.609375 -19.28125 C 14.734375 -19.007812 15.898438 -18.601562 17.109375 -18.0625 L 15.296875 -13.75 C 14.410156 -14.15625 13.46875 -14.492188 12.46875 -14.765625 C 11.476562 -15.046875 10.671875 -15.1875 10.046875 -15.1875 C 8.953125 -15.1875 8.40625 -14.921875 8.40625 -14.390625 C 8.40625 -14.054688 8.59375 -13.769531 8.96875 -13.53125 C 9.351562 -13.300781 10.457031 -12.828125 12.28125 -12.109375 C 13.644531 -11.554688 14.660156 -11.007812 15.328125 -10.46875 C 15.992188 -9.9375 16.484375 -9.304688 16.796875 -8.578125 C 17.109375 -7.859375 17.265625 -6.984375 17.265625 -5.953125 Z M 17.265625 -5.953125 "/></g></g></g><g fill="#000000" fill-opacity="1"><g transform="translate(289.404457, 200.624987)"><g><path d="M 11.796875 -4.9375 C 12.691406 -4.9375 13.765625 -5.160156 15.015625 -5.609375 L 15.015625 -0.734375 C 14.117188 -0.347656 13.265625 -0.0703125 12.453125 0.09375 C 11.640625 0.257812 10.6875 0.34375 9.59375 0.34375 C 7.34375 0.34375 5.722656 -0.203125 4.734375 -1.296875 C 3.742188 -2.398438 3.25 -4.09375 3.25 -6.375 L 3.25 -14.359375 L 0.90625 -14.359375 L 0.90625 -17.078125 L 3.875 -19.171875 L 5.609375 -23.25 L 9.984375 -23.25 L 9.984375 -19.359375 L 14.734375 -19.359375 L 14.734375 -14.359375 L 9.984375 -14.359375 L 9.984375 -6.8125 C 9.984375 -5.5625 10.585938 -4.9375 11.796875 -4.9375 Z M 11.796875 -4.9375 "/></g></g></g><g fill="#000000" fill-opacity="1"><g transform="translate(305.499495, 200.624987)"><g><path d="M 11.65625 0.34375 C 8.425781 0.34375 5.921875 -0.507812 4.140625 -2.21875 C 2.359375 -3.9375 1.46875 -6.378906 1.46875 -9.546875 C 1.46875 -12.816406 2.289062 -15.328125 3.9375 -17.078125 C 5.59375 -18.828125 7.953125 -19.703125 11.015625 -19.703125 C 13.929688 -19.703125 16.1875 -18.941406 17.78125 -17.421875 C 19.375 -15.898438 20.171875 -13.710938 20.171875 -10.859375 L 20.171875 -7.875 L 8.21875 -7.875 C 8.257812 -6.789062 8.65625 -5.941406 9.40625 -5.328125 C 10.15625 -4.710938 11.171875 -4.40625 12.453125 -4.40625 C 13.628906 -4.40625 14.707031 -4.515625 15.6875 -4.734375 C 16.675781 -4.960938 17.75 -5.34375 18.90625 -5.875 L 18.90625 -1.078125 C 17.851562 -0.546875 16.769531 -0.175781 15.65625 0.03125 C 14.539062 0.238281 13.207031 0.34375 11.65625 0.34375 Z M 11.265625 -15.15625 C 10.472656 -15.15625 9.8125 -14.90625 9.28125 -14.40625 C 8.757812 -13.914062 8.453125 -13.140625 8.359375 -12.078125 L 14.09375 -12.078125 C 14.070312 -13.015625 13.804688 -13.757812 13.296875 -14.3125 C 12.796875 -14.875 12.117188 -15.15625 11.265625 -15.15625 Z M 11.265625 -15.15625 "/></g></g></g><g fill="#000000" fill-opacity="1"><g transform="translate(327.130417, 200.624987)"><g><path d="M 26.078125 0 L 26.078125 -10.53125 C 26.078125 -11.84375 25.894531 -12.820312 25.53125 -13.46875 C 25.175781 -14.125 24.613281 -14.453125 23.84375 -14.453125 C 22.8125 -14.453125 22.054688 -14.015625 21.578125 -13.140625 C 21.097656 -12.265625 20.859375 -10.894531 20.859375 -9.03125 L 20.859375 0 L 14.171875 0 L 14.171875 -10.53125 C 14.171875 -11.84375 14 -12.820312 13.65625 -13.46875 C 13.3125 -14.125 12.757812 -14.453125 12 -14.453125 C 10.945312 -14.453125 10.179688 -13.984375 9.703125 -13.046875 C 9.222656 -12.117188 8.984375 -10.597656 8.984375 -8.484375 L 8.984375 0 L 2.3125 0 L 2.3125 -19.359375 L 7.34375 -19.359375 L 8.1875 -16.96875 L 8.578125 -16.96875 C 9.085938 -17.851562 9.828125 -18.53125 10.796875 -19 C 11.773438 -19.46875 12.890625 -19.703125 14.140625 -19.703125 C 16.929688 -19.703125 18.890625 -18.851562 20.015625 -17.15625 L 20.546875 -17.15625 C 21.085938 -17.957031 21.84375 -18.582031 22.8125 -19.03125 C 23.789062 -19.476562 24.867188 -19.703125 26.046875 -19.703125 C 28.335938 -19.703125 30.03125 -19.113281 31.125 -17.9375 C 32.21875 -16.769531 32.765625 -14.988281 32.765625 -12.59375 L 32.765625 0 Z M 26.078125 0 "/></g></g></g></svg>